#!OML:ASF G:\JayActor3\Patient Classification 1\Patient 1\Session 5\male.ASF
:FULLY-SPECIFIED
:DEGREES
836
root -23.3615 14.6442 -5.80245 190.294 -87.2239 -177.105
lowerback 33.5976 -0.0083456 0.27036
upperback 6.70751 -0.904164 -1.78324
thorax -9.78923 -0.735541 -1.63995
lowerneck -4.50996 0.695724 1.70915
upperneck -15.4062 0.549006 0.931846
head -4.26472 -0.0907365 0.019427
rclavicle -7.15625e-015 8.34896e-015
rhumerus -23.1837 3.92901 -87.7808
rradius 47.8754
rwrist -10.364
rhand -19.2701 -8.62727
rfingers 7.12502
rthumb 7.04439 -38.49
lclavicle -7.15625e-015 8.34896e-015
lhumerus -22.8764 -1.81464 82.2853
lradius 44.9496
lwrist 28.6484
lhand -18.004 12.8373
lfingers 7.12502
lthumb 8.26652 42.6556
rfemur -49.2567 -3.66494 24.5279
rtibia 92.8371
rfoot -17.2841 -5.45203
rtoes -17.4114
lfemur -67.0107 5.73436 -27.2219
ltibia 57.8786
lfoot -14.1501 7.19944
ltoes -11.7789
837
root -23.4825 14.6542 -5.78006 191.081 -87.1143 -177.886
lowerback 33.6185 0.016747 0.195511
upperback 6.6845 -0.899282 -1.79267
thorax -9.82209 -0.731671 -1.61153
lowerneck -4.46235 0.684169 1.71936
upperneck -15.3933 0.532341 0.902057
head -4.26891 -0.0975115 0.00790717
rclavicle 8.34896e-015 1.07344e-014
rhumerus -23.2203 3.90927 -87.7765
rradius 47.9209
rwrist -10.3544
rhand -19.2437 -8.57379
rfingers 7.12502
rthumb 7.06987 -38.4357
lclavicle 8.34896e-015 1.07344e-014
lhumerus -22.8652 -1.88677 82.2765
lradius 45.0036
lwrist 28.6986
lhand -17.9455 12.7853
lfingers 7.12502
lthumb 8.32291 42.6014
rfemur -49.725 -3.66211 24.2255
rtibia 93.7622
rfoot -15.1643 -5.61511
rtoes -16.3992
lfemur -66.8161 5.93045 -27.3972
ltibia 58.3594
lfoot -14.3152 6.81615
ltoes -11.1201
838
root -23.6039 14.664 -5.75699 192.057 -86.9985 -178.851
lowerback 33.598 0.0370284 0.117446
upperback 6.67083 -0.901941 -1.80929
thorax -9.82894 -0.731123 -1.58649
lowerneck -4.42332 0.681707 1.73693
upperneck -15.3774 0.526459 0.861824
head -4.27029 -0.0988815 -0.00862919
rclavicle -1.23246e-014 -2.5842e-014
rhumerus -23.2487 3.88902 -87.7764
rradius 47.9805
rwrist -10.339
rhand -19.207 -8.56667
rfingers 7.12502
rthumb 7.10536 -38.4274
lclavicle -1.23246e-014 -2.5842e-014
lhumerus -22.8475 -1.95022 82.2558
lradius 45.0697
lwrist 28.7254
lhand -17.866 12.7647
lfingers 7.12502
lthumb 8.39968 42.5777
rfemur -50.2852 -3.63965 23.8882
rtibia 94.7607
rfoot -12.937 -5.80842
rtoes -15.1995
lfemur -66.6162 6.11763 -27.5872
ltibia 58.8421
lfoot -14.5339 6.50059
ltoes -10.4091
839
root -23.7257 14.6737 -5.73328 193.255 -86.8727 -180.036
lowerback 33.5427 0.0545777 0.0319584
upperback 6.66392 -0.910853 -1.83289
thorax -9.81508 -0.733235 -1.5628
lowerneck -4.39062 0.689105 1.74913
upperneck -15.3601 0.533969 0.822894
head -4.26994 -0.0933559 -0.0240956
rclavicle 1.11319e-014 1.98785e-014
rhumerus -23.2736 3.87006 -87.7796
rradius 48.048
rwrist -10.3352
rhand -19.1848 -8.55736
rfingers 7.12502
rthumb 7.12679 -38.4174
lclavicle 1.11319e-014 1.98785e-014
lhumerus -22.8324 -2.00967 82.2284
lradius 45.1476
lwrist 28.7643
lhand -17.8154 12.7395
lfingers 7.12502
lthumb 8.44844 42.5505
rfemur -50.9342 -3.59876 23.5136
rtibia 95.8159
rfoot -10.6129 -6.0167
rtoes -13.7276
lfemur -66.4064 6.29373 -27.7926
ltibia 59.3234
lfoot -14.8046 6.24734
ltoes -9.65894
840
root -23.8467 14.6824 -5.70928 194.78 -86.7354 -181.55
lowerback 33.4719 0.0742549 -0.0719806
upperback 6.66254 -0.924067 -1.86265
thorax -9.78909 -0.737061 -1.53423
lowerneck -4.38268 0.704269 1.74816
upperneck -15.3269 0.552073 0.789103
head -4.25899 -0.0817453 -0.0357885
rclavicle -3.10104e-014 -2.66371e-014
rhumerus -23.2924 3.84976 -87.781
rradius 48.1234
rwrist -10.3492
rhand -19.1809 -8.55146
rfingers 7.12502
rthumb 7.13049 -38.4113
lclavicle -3.10104e-014 -2.66371e-014
lhumerus -22.8173 -2.06506 82.1991
lradius 45.2271
lwrist 28.8148
lhand -17.8258 12.6375
lfingers 7.12502
lthumb 8.43845 42.4489
rfemur -51.672 -3.54028 23.0972
rtibia 96.911
rfoot -8.20428 -6.22754
rtoes -12.1634
lfemur -66.1852 6.45696 -28.0208
ltibia 59.7992
lfoot -15.1165 6.04699
ltoes -8.89711
841
root -23.9666 14.6898 -5.68495 196.428 -86.5938 -183.197
lowerback 33.3974 0.0931839 -0.180684
upperback 6.66685 -0.940235 -1.89401
thorax -9.75529 -0.742365 -1.50372
lowerneck -4.38597 0.721736 1.73188
upperneck -15.2888 0.573816 0.761977
head -4.24416 -0.067703 -0.0426481
rclavicle -1.11319e-014 -1.47101e-014
rhumerus -23.3071 3.82524 -87.7744
rradius 48.2086
rwrist -10.3771
rhand -19.1797 -8.55859
rfingers 7.12502
rthumb 7.13167 -38.4184
lclavicle -1.11319e-014 -1.47101e-014
lhumerus -22.8005 -2.11089 82.1707
lradius 45.3173
lwrist 28.8638
lhand -17.8488 12.5514
lfingers 7.12502
lthumb 8.41626 42.3638
rfemur -52.4807 -3.47167 22.6527
rtibia 98.0194
rfoot -5.71317 -6.4377
rtoes -10.4592
lfemur -65.9471 6.60277 -28.2609
ltibia 60.266
lfoot -15.4577 5.88427
ltoes -8.16082
842
root -24.0854 14.6961 -5.66049 198.088 -86.4539 -184.868
lowerback 33.3329 0.107759 -0.28728
upperback 6.67179 -0.961494 -1.92631
thorax -9.72474 -0.7502 -1.47334
lowerneck -4.39915 0.741511 1.70362
upperneck -15.2448 0.599653 0.744743
head -4.22538 -0.051297 -0.0441871
rclavicle 1.27222e-014 1.23246e-014
rhumerus -23.3232 3.80219 -87.764
rradius 48.2955
rwrist -10.4218
rhand -19.1945 -8.55978
rfingers 7.12502
rthumb 7.11741 -38.4201
lclavicle 1.27222e-014 1.23246e-014
lhumerus -22.7892 -2.14491 82.1408
lradius 45.4142
lwrist 28.9106
lhand -17.8999 12.4391
lfingers 7.12502
lthumb 8.36695 42.2534
rfemur -53.3452 -3.39921 22.1909
rtibia 99.1141
rfoot -3.16555 -6.64473
rtoes -8.60856
lfemur -65.69 6.72622 -28.5031
ltibia 60.7194
lfoot -15.8217 5.7511
ltoes -7.46242
843
root -24.2031 14.7015 -5.63624 199.688 -86.3241 -186.496
lowerback 33.2831 0.115997 -0.387336
upperback 6.6785 -0.988796 -1.9572
thorax -9.69804 -0.761144 -1.44259
lowerneck -4.41271 0.762809 1.66646
upperneck -15.2013 0.628785 0.737454
head -4.20672 -0.0332041 -0.0409142
rclavicle -1.82882e-014 -3.26007e-014
rhumerus -23.3394 3.78067 -87.7504
rradius 48.3808
rwrist -10.4781
rhand -19.2235 -8.55143
rfingers 7.12502
rthumb 7.08938 -38.4127
lclavicle -1.82882e-014 -3.26007e-014
lhumerus -22.7812 -2.168 82.1067
lradius 45.5199
lwrist 28.9453
lhand -17.9581 12.3375
lfingers 7.12502
lthumb 8.31075 42.1541
rfemur -54.2412 -3.32857 21.7249
rtibia 100.17
rfoot -0.560354 -6.84817
rtoes -6.57367
lfemur -65.4085 6.82605 -28.7407
ltibia 61.1572
lfoot -16.1909 5.65222
ltoes -6.87192
844
root -24.3194 14.7058 -5.61222 201.208 -86.2123 -188.061
lowerback 33.2549 0.113698 -0.473617
upperback 6.68898 -1.02554 -1.98758
thorax -9.67589 -0.777008 -1.415
lowerneck -4.43394 0.785051 1.63464
upperneck -15.1609 0.659089 0.734513
head -4.18784 -0.0152515 -0.0370927
rclavicle -3.97569e-016 1.43125e-014
rhumerus -23.349 3.76208 -87.7377
rradius 48.462
rwrist -10.5458
rhand -19.2559 -8.55459
rfingers 7.12502
rthumb 7.05811 -38.4169
lclavicle -3.97569e-016 1.43125e-014
lhumerus -22.7662 -2.17549 82.0634
lradius 45.6342
lwrist 28.9531
lhand -17.9892 12.2981
lfingers 7.12502
lthumb 8.28074 42.1158
rfemur -55.154 -3.26661 21.2642
rtibia 101.172
rfoot 2.04852 -7.0338
rtoes -4.32439
lfemur -65.1038 6.89556 -28.9669
ltibia 61.5803
lfoot -16.5609 5.58988
ltoes -6.34596
845
root -24.4349 14.7096 -5.58897 202.74 -86.1162 -189.656
lowerback 33.2477 0.104367 -0.556105
upperback 6.70192 -1.07082 -2.01868
thorax -9.65941 -0.797127 -1.38684
lowerneck -4.46581 0.810378 1.60805
upperneck -15.1138 0.695059 0.747445
head -4.16453 0.00463422 -0.0289739
rclavicle -2.34566e-014 -1.70955e-014
rhumerus -23.3571 3.74164 -87.7288
rradius 48.5399
rwrist -10.6204
rhand -19.2925 -8.55129
rfingers 7.12502
rthumb 7.0228 -38.4148
lclavicle -2.34566e-014 -1.70955e-014
lhumerus -22.7441 -2.17315 82.0115
lradius 45.7445
lwrist 28.9481
lhand -18.0305 12.2573
lfingers 7.12502
lthumb 8.24087 42.0766
rfemur -56.0661 -3.21453 20.8109
rtibia 102.11
rfoot 4.44687 -7.10984
rtoes -2.11986
lfemur -64.7712 6.93864 -29.1849
ltibia 61.9888
lfoot -16.9351 5.55681
ltoes -5.87234
846
root -24.5493 14.7123 -5.56631 204.208 -86.037 -191.2
lowerback 33.2538 0.0874404 -0.627718
upperback 6.72139 -1.12277 -2.04881
thorax -9.64113 -0.820866 -1.36089
lowerneck -4.51616 0.837776 1.59059
upperneck -15.0593 0.734163 0.7704
head -4.13511 0.0251556 -0.0191014
rclavicle -1.59028e-015 5.96354e-015
rhumerus -23.352 3.72166 -87.7216
rradius 48.6093
rwrist -10.6982
rhand -19.3216 -8.56181
rfingers 7.12502
rthumb 6.99474 -38.4262
lclavicle -1.59028e-015 5.96354e-015
lhumerus -22.7005 -2.1606 81.953
lradius 45.8446
lwrist 28.9081
lhand -18.0693 12.2355
lfingers 7.12502
lthumb 8.20348 42.0562
rfemur -56.9722 -3.1698 20.378
rtibia 102.98
rfoot 6.32407 -6.89387
rtoes -0.170839
lfemur -64.4222 6.95566 -29.3879
ltibia 62.3902
lfoot -17.309 5.54371
ltoes -5.4121
847
root -24.6628 14.7138 -5.54461 205.587 -85.9677 -192.664
lowerback 33.2752 0.0698213 -0.694021
upperback 6.74115 -1.17382 -2.07448
thorax -9.62828 -0.844406 -1.33326
lowerneck -4.56476 0.864274 1.57651
upperneck -15.0085 0.772936 0.802193
head -4.10745 0.0448536 -0.00684386
rclavicle -1.90833e-014 -3.10104e-014
rhumerus -23.3466 3.69824 -87.7108
rradius 48.6746
rwrist -10.7799
rhand -19.3443 -8.57137
rfingers 7.12502
rthumb 6.97281 -38.4365
lclavicle -1.90833e-014 -3.10104e-014
lhumerus -22.6395 -2.14104 81.8975
lradius 45.9285
lwrist 28.8474
lhand -18.115 12.2347
lfingers 7.12502
lthumb 8.15938 42.0572
rfemur -57.8698 -3.12553 19.9775
rtibia 103.773
rfoot 7.40342 -6.35566
rtoes 1.17303
lfemur -64.0641 6.9548 -29.5729
ltibia 62.7902
lfoot -17.6917 5.53225
ltoes -4.90919
